<svg version="1.1" xmlns="http://www.w3.org/2000/svg" viewBox="0 0 725.8297576904297 392" width="725.8297576904297" height="392">
  <!-- svg-source:excalidraw -->
  
  <defs>
    <style class="style-fonts">
      @font-face {
        font-family: "Virgil";
        src: url("https://excalidraw.com/Virgil.woff2");
      }
      @font-face {
        font-family: "Cascadia";
        src: url("https://excalidraw.com/Cascadia.woff2");
      }
    </style>
  </defs>
  <g stroke-linecap="round" transform="translate(211.14988708496094 73) rotate(0 165 121.5)"><path d="M238.03 12.7 C253.82 16.17, 269.19 26.2, 281.57 35.11 C293.95 44.02, 304.53 55.11, 312.3 66.18 C320.07 77.25, 325.62 89.33, 328.17 101.53 C330.72 113.72, 330.25 126.9, 327.59 139.35 C324.92 151.79, 319.54 164.97, 312.18 176.19 C304.82 187.41, 295.27 197.83, 283.43 206.66 C271.6 215.49, 256.43 223.34, 241.17 229.15 C225.91 234.97, 208.59 239.61, 191.89 241.53 C175.18 243.46, 157.8 242.61, 140.96 240.71 C124.12 238.81, 106.14 235.73, 90.83 230.14 C75.53 224.56, 61.13 215.82, 49.12 207.2 C37.12 198.59, 26.59 189.52, 18.79 178.45 C11 167.39, 5.12 153.45, 2.36 140.8 C-0.41 128.16, -0.25 114.96, 2.22 102.6 C4.68 90.23, 9.7 77.53, 17.14 66.63 C24.58 55.73, 34.91 46.12, 46.87 37.19 C58.83 28.26, 73.82 18.81, 88.91 13.04 C104 7.26, 120.52 4.57, 137.41 2.53 C154.3 0.48, 172.63 -1.29, 190.23 0.74 C207.84 2.77, 233.49 11.65, 243.05 14.7 C252.61 17.75, 248.76 17.35, 247.6 19.04 M229.34 8.35 C245.07 11.21, 259.01 22.24, 271.76 30.28 C284.51 38.32, 297.01 45.93, 305.81 56.6 C314.61 67.26, 320.76 82.1, 324.56 94.28 C328.37 106.46, 329.98 117.26, 328.64 129.68 C327.29 142.11, 323.01 157.17, 316.48 168.85 C309.95 180.54, 300.41 190.64, 289.46 199.78 C278.52 208.93, 264.99 217.28, 250.81 223.73 C236.64 230.18, 220.63 235.35, 204.42 238.47 C188.21 241.59, 170.56 243.38, 153.56 242.45 C136.55 241.52, 118.39 237.84, 102.42 232.88 C86.46 227.91, 70.76 220.6, 57.77 212.68 C44.78 204.76, 33.41 195.86, 24.46 185.38 C15.52 174.9, 8.22 161.9, 4.11 149.8 C0 137.7, -1.51 125.29, -0.18 112.78 C1.14 100.26, 5.25 86.48, 12.06 74.71 C18.87 62.95, 29.68 51.88, 40.7 42.18 C51.72 32.47, 63.82 22.96, 78.17 16.48 C92.52 10.01, 110.29 5.82, 126.8 3.32 C143.31 0.81, 160.21 0.41, 177.23 1.43 C194.26 2.46, 220.74 7.67, 228.96 9.46 C237.19 11.26, 227.6 10.42, 226.61 12.21" stroke="#000000" stroke-width="1" fill="none"></path></g><g transform="translate(263.14988708496094 171) rotate(0 111.51985931396484 25)"><text x="111.51985931396484" y="0" font-family="Virgil, Segoe UI Emoji" font-size="20px" fill="#000000" text-anchor="middle" style="white-space: pre;" direction="ltr" dominant-baseline="text-before-edge">Revisar calidad de las</text><text x="111.51985931396484" y="25" font-family="Virgil, Segoe UI Emoji" font-size="20px" fill="#000000" text-anchor="middle" style="white-space: pre;" direction="ltr" dominant-baseline="text-before-edge">secuencias</text></g><g transform="translate(10 115) rotate(0 98.14988708496094 37.5)"><text x="98.14988708496094" y="0" font-family="Virgil, Segoe UI Emoji" font-size="20px" fill="#000000" text-anchor="middle" style="white-space: pre;" direction="ltr" dominant-baseline="text-before-edge">Grado de confianza</text><text x="98.14988708496094" y="25" font-family="Virgil, Segoe UI Emoji" font-size="20px" fill="#000000" text-anchor="middle" style="white-space: pre;" direction="ltr" dominant-baseline="text-before-edge">en la designación de</text><text x="98.14988708496094" y="50" font-family="Virgil, Segoe UI Emoji" font-size="20px" fill="#000000" text-anchor="middle" style="white-space: pre;" direction="ltr" dominant-baseline="text-before-edge">las bases (Q)</text></g><g transform="translate(238.89995574951172 10) rotate(0 66.24993133544922 12.5)"><text x="66.24993133544922" y="0" font-family="Virgil, Segoe UI Emoji" font-size="20px" fill="#000000" text-anchor="middle" style="white-space: pre;" direction="ltr" dominant-baseline="text-before-edge">Contaminación</text></g><g transform="translate(494.4700164794922 45) rotate(0 110.67987060546875 25)"><text x="110.67987060546875" y="0" font-family="Virgil, Segoe UI Emoji" font-size="20px" fill="#000000" text-anchor="middle" style="white-space: pre;" direction="ltr" dominant-baseline="text-before-edge">Número de secuencias </text><text x="110.67987060546875" y="25" font-family="Virgil, Segoe UI Emoji" font-size="20px" fill="#000000" text-anchor="middle" style="white-space: pre;" direction="ltr" dominant-baseline="text-before-edge">por individuo</text></g><g transform="translate(565.8099365234375 215) rotate(0 44.33995056152344 12.5)"><text x="44.33995056152344" y="0" font-family="Virgil, Segoe UI Emoji" font-size="20px" fill="#000000" text-anchor="middle" style="white-space: pre;" direction="ltr" dominant-baseline="text-before-edge">Patrones</text></g><g transform="translate(448.1599655151367 332) rotate(0 66.98992156982422 25)"><text x="66.98992156982422" y="0" font-family="Virgil, Segoe UI Emoji" font-size="20px" fill="#000000" text-anchor="middle" style="white-space: pre;" direction="ltr" dominant-baseline="text-before-edge">Presencia de </text><text x="66.98992156982422" y="25" font-family="Virgil, Segoe UI Emoji" font-size="20px" fill="#000000" text-anchor="middle" style="white-space: pre;" direction="ltr" dominant-baseline="text-before-edge">adaptadores</text></g><g transform="translate(113.83997344970703 326) rotate(0 76.3099136352539 25)"><text x="76.3099136352539" y="0" font-family="Virgil, Segoe UI Emoji" font-size="20px" fill="#000000" text-anchor="middle" style="white-space: pre;" direction="ltr" dominant-baseline="text-before-edge">Longitud de las</text><text x="76.3099136352539" y="25" font-family="Virgil, Segoe UI Emoji" font-size="20px" fill="#000000" text-anchor="middle" style="white-space: pre;" direction="ltr" dominant-baseline="text-before-edge">secuencias</text></g></svg>